<svg width="24" height="24" viewBox="0 0 24 24" fill="none" xmlns="http://www.w3.org/2000/svg">
<path d="M16.24 11.51L17.81 9.93998L14.06 6.18998L12.49 7.75998L8.35 3.62998C7.57 2.84998 6.3 2.84998 5.52 3.62998L3.62 5.52998C2.84 6.30998 2.84 7.57998 3.62 8.35998L7.75 12.49L3 17.25V21H6.75L11.51 16.24L15.64 20.37C16.59 21.32 17.87 20.97 18.47 20.37L20.37 18.47C21.15 17.69 21.15 16.42 20.37 15.64L16.24 11.51ZM9.18 11.07L5.04 6.93998L6.93 5.03998L8.2 6.30998L7.02 7.49998L8.43 8.90998L9.62 7.71998L11.07 9.16998L9.18 11.07ZM17.06 18.96L12.93 14.83L14.83 12.93L16.28 14.38L15.09 15.57L16.5 16.98L17.69 15.79L18.96 17.06L17.06 18.96Z" fill="#9AA0A6"/>
<path d="M20.71 7.03999C21.1 6.64999 21.1 6.01999 20.71 5.62999L18.37 3.28999C17.9 2.81999 17.25 2.99999 16.96 3.28999L15.13 5.11999L18.88 8.86999L20.71 7.03999Z" fill="#9AA0A6"/>
</svg>
